<?xml version="1.0" encoding="UTF-8" standalone="no"?>
<!-- Created with Inkscape (http://www.inkscape.org/) -->

<svg
   xmlns:dc="http://purl.org/dc/elements/1.1/"
   xmlns:cc="http://creativecommons.org/ns#"
   xmlns:rdf="http://www.w3.org/1999/02/22-rdf-syntax-ns#"
   xmlns:svg="http://www.w3.org/2000/svg"
   xmlns="http://www.w3.org/2000/svg"
   xmlns:sodipodi="http://sodipodi.sourceforge.net/DTD/sodipodi-0.dtd"
   xmlns:inkscape="http://www.inkscape.org/namespaces/inkscape"
   width="400"
   height="600"
   id="svg2"
   version="1.1"
   inkscape:version="0.48.2 r9819"
   sodipodi:docname="calendar.svg">
  <defs
     id="defs4" />
  <sodipodi:namedview
     id="base"
     pagecolor="#ffffff"
     bordercolor="#666666"
     borderopacity="1.0"
     inkscape:pageopacity="0.0"
     inkscape:pageshadow="2"
     inkscape:zoom="2"
     inkscape:cx="119.79061"
     inkscape:cy="160.33241"
     inkscape:document-units="px"
     inkscape:current-layer="layer1"
     showgrid="true"
     inkscape:window-width="1440"
     inkscape:window-height="784"
     inkscape:window-x="0"
     inkscape:window-y="0"
     inkscape:window-maximized="1">
    <inkscape:grid
       type="xygrid"
       id="grid2985"
       empspacing="5"
       visible="true"
       enabled="true"
       snapvisiblegridlinesonly="true" />
  </sodipodi:namedview>
  <metadata
     id="metadata7">
    <rdf:RDF>
      <cc:Work
         rdf:about="">
        <dc:format>image/svg+xml</dc:format>
        <dc:type
           rdf:resource="http://purl.org/dc/dcmitype/StillImage" />
        <dc:title />
      </cc:Work>
    </rdf:RDF>
  </metadata>
  <g
     inkscape:label="Layer 1"
     inkscape:groupmode="layer"
     id="layer1"
     transform="translate(0,-2557.0866)">
    <path
       inkscape:connector-curvature="0"
       style="fill:#a676b3;fill-opacity:1;fill-rule:evenodd;stroke:none"
       d="m 60,2647.0866 c -5.54,0 -10,4.46 -10,10 l 0,280 c 0,5.54 4.46,10 10,10 l 280,0 c 5.54,0 10,-4.46 10,-10 l 0,-280 c 0,-5.54 -4.46,-10 -10,-10 l -280,0 z m 90,55 10,0 0,51.3438 c 2.99494,1.7275 5,4.9503 5,8.6562 0,5.5228 -4.47715,10 -10,10 -5.52285,0 -10,-4.4772 -10,-10 0,-3.7059 2.00506,-6.9287 5,-8.6562 l 0,-51.3438 z m 90,0 10,0 0,51.3438 c 2.99494,1.7275 5,4.9503 5,8.6562 0,5.5228 -4.47715,10 -10,10 -5.52285,0 -10,-4.4772 -10,-10 0,-3.7059 2.00506,-6.9287 5,-8.6562 l 0,-51.3438 z m -135,20 35,0 0,10 -25,0 0,60 170,0 0,-60 -25,0 0,-10 35,0 0,170 -190,0 0,-170 z m 65,0 60,0 0,10 -60,0 0,-10 z m -55,80 0,35 35,0 0,-35 -35,0 z m 45,0 0,35 35,0 0,-35 -35,0 z m 45,0 0,35 35,0 0,-35 -35,0 z m 45,0 0,35 35,0 0,-35 -35,0 z m -135,45 0,35 35,0 0,-35 -35,0 z m 45,0 0,35 35,0 0,-35 -35,0 z m 45,0 0,35 35,0 0,-35 -35,0 z m 45,0 0,35 35,0 0,-35 -35,0 z"
       id="path3097" />
  </g>
</svg>
