<?xml version="1.0" encoding="UTF-8" standalone="no"?>
<!-- Created with Inkscape (http://www.inkscape.org/) -->

<svg
   xmlns:dc="http://purl.org/dc/elements/1.1/"
   xmlns:cc="http://creativecommons.org/ns#"
   xmlns:rdf="http://www.w3.org/1999/02/22-rdf-syntax-ns#"
   xmlns:svg="http://www.w3.org/2000/svg"
   xmlns="http://www.w3.org/2000/svg"
   xmlns:sodipodi="http://sodipodi.sourceforge.net/DTD/sodipodi-0.dtd"
   xmlns:inkscape="http://www.inkscape.org/namespaces/inkscape"
   width="400"
   height="600"
   id="svg2"
   version="1.1"
   inkscape:version="0.48.2 r9819"
   sodipodi:docname="calendar-active.svg">
  <defs
     id="defs4" />
  <sodipodi:namedview
     id="base"
     pagecolor="#ffffff"
     bordercolor="#666666"
     borderopacity="1.0"
     inkscape:pageopacity="0.0"
     inkscape:pageshadow="2"
     inkscape:zoom="2"
     inkscape:cx="119.79061"
     inkscape:cy="360.33241"
     inkscape:document-units="px"
     inkscape:current-layer="layer1"
     showgrid="true"
     inkscape:window-width="1440"
     inkscape:window-height="809"
     inkscape:window-x="0"
     inkscape:window-y="0"
     inkscape:window-maximized="1">
    <inkscape:grid
       type="xygrid"
       id="grid2985"
       empspacing="5"
       visible="true"
       enabled="true"
       snapvisiblegridlinesonly="true" />
  </sodipodi:namedview>
  <metadata
     id="metadata7">
    <rdf:RDF>
      <cc:Work
         rdf:about="">
        <dc:format>image/svg+xml</dc:format>
        <dc:type
           rdf:resource="http://purl.org/dc/dcmitype/StillImage" />
        <dc:title></dc:title>
      </cc:Work>
    </rdf:RDF>
  </metadata>
  <g
     inkscape:label="Layer 1"
     inkscape:groupmode="layer"
     id="layer1"
     transform="translate(0,-2557.0866)">
    <g
       id="g3923">
      <path
         inkscape:connector-curvature="0"
         id="path3097"
         d="M 50.666667,2637.0866 C 44.757333,2637.0866 40,2641.8439 40,2647.7533 l 0,298.6666 c 0,5.9094 4.757333,10.6667 10.666667,10.6667 l 298.666663,0 c 5.90934,0 10.66667,-4.7573 10.66667,-10.6667 l 0,-298.6666 c 0,-5.9094 -4.75733,-10.6667 -10.66667,-10.6667 l -298.666663,0 z m 96.000003,58.6667 10.66666,0 0,54.7667 c 3.19461,1.8427 5.33334,5.2803 5.33334,9.2333 0,5.891 -4.77563,10.6666 -10.66667,10.6666 -5.89104,0 -10.66667,-4.7756 -10.66667,-10.6666 0,-3.953 2.13873,-7.3906 5.33334,-9.2333 l 0,-54.7667 z m 96,0 10.66666,0 0,54.7667 c 3.19461,1.8427 5.33334,5.2803 5.33334,9.2333 0,5.891 -4.77563,10.6666 -10.66667,10.6666 -5.89104,0 -10.66667,-4.7756 -10.66667,-10.6666 0,-3.953 2.13873,-7.3906 5.33334,-9.2333 l 0,-54.7667 z m -144.000003,21.3333 37.333333,0 0,10.6667 -26.66667,0 0,64 181.33334,0 0,-64 -26.66667,0 0,-10.6667 37.33333,0 0,181.3333 -202.666663,0 0,-181.3333 z m 69.333333,0 64,0 0,10.6667 -64,0 0,-10.6667 z m -58.66667,85.3333 0,37.3334 37.33334,0 0,-37.3334 -37.33334,0 z m 48,0 0,37.3334 37.33334,0 0,-37.3334 -37.33334,0 z m 48,0 0,37.3334 37.33334,0 0,-37.3334 -37.33334,0 z m 48,0 0,37.3334 37.33334,0 0,-37.3334 -37.33334,0 z m -144,48 0,37.3334 37.33334,0 0,-37.3334 -37.33334,0 z m 48,0 0,37.3334 37.33334,0 0,-37.3334 -37.33334,0 z m 48,0 0,37.3334 37.33334,0 0,-37.3334 -37.33334,0 z m 48,0 0,37.3334 37.33334,0 0,-37.3334 -37.33334,0 z"
         style="fill:#a676b3;fill-opacity:1;fill-rule:evenodd;stroke:none" />
      <text
         sodipodi:linespacing="125%"
         id="text3444"
         y="3069.8716"
         x="62.5975"
         style="font-size:40px;font-style:normal;font-weight:normal;line-height:125%;letter-spacing:0px;word-spacing:0px;fill:#000000;fill-opacity:1;stroke:none;font-family:Sans"
         xml:space="preserve"><tspan
           style="font-size:65px;font-style:normal;font-variant:normal;font-weight:normal;font-stretch:normal;font-family:STHeiti;-inkscape-font-specification:STHeiti"
           y="3069.8716"
           x="62.5975"
           id="tspan3446"
           sodipodi:role="line"><tspan
   id="tspan3448"
   style="letter-spacing:5px">就诊日</tspan>程</tspan></text>
    </g>
  </g>
</svg>
