<?xml version="1.0" encoding="UTF-8" standalone="no"?>
<!-- Created with Inkscape (http://www.inkscape.org/) -->

<svg
   xmlns:dc="http://purl.org/dc/elements/1.1/"
   xmlns:cc="http://creativecommons.org/ns#"
   xmlns:rdf="http://www.w3.org/1999/02/22-rdf-syntax-ns#"
   xmlns:svg="http://www.w3.org/2000/svg"
   xmlns="http://www.w3.org/2000/svg"
   xmlns:sodipodi="http://sodipodi.sourceforge.net/DTD/sodipodi-0.dtd"
   xmlns:inkscape="http://www.inkscape.org/namespaces/inkscape"
   width="200"
   height="400"
   id="svg2"
   version="1.1"
   inkscape:version="0.48.2 r9819"
   sodipodi:docname="compass.svg"
   inkscape:export-filename="/Users/YunhaoHu/Development/tudingalpha/public/images/compass.png"
   inkscape:export-xdpi="90"
   inkscape:export-ydpi="90">
  <defs
     id="defs4" />
  <sodipodi:namedview
     id="base"
     pagecolor="#ffffff"
     bordercolor="#666666"
     borderopacity="1.0"
     inkscape:pageopacity="0.0"
     inkscape:pageshadow="2"
     inkscape:zoom="2.8284271"
     inkscape:cx="-22.153657"
     inkscape:cy="136.53841"
     inkscape:document-units="px"
     inkscape:current-layer="layer1"
     showgrid="true"
     inkscape:snap-grids="true"
     inkscape:snap-page="false"
     inkscape:window-width="1322"
     inkscape:window-height="849"
     inkscape:window-x="0"
     inkscape:window-y="0"
     inkscape:window-maximized="0"
     inkscape:snap-bbox="false"
     inkscape:bbox-paths="true"
     inkscape:object-paths="true"
     inkscape:object-nodes="false">
    <inkscape:grid
       type="xygrid"
       id="grid2985"
       empspacing="5"
       visible="true"
       enabled="true"
       snapvisiblegridlinesonly="true" />
  </sodipodi:namedview>
  <metadata
     id="metadata7">
    <rdf:RDF>
      <cc:Work
         rdf:about="">
        <dc:format>image/svg+xml</dc:format>
        <dc:type
           rdf:resource="http://purl.org/dc/dcmitype/StillImage" />
        <dc:title />
      </cc:Work>
    </rdf:RDF>
  </metadata>
  <g
     inkscape:label="Layer 1"
     inkscape:groupmode="layer"
     id="layer1"
     transform="translate(0,-652.3622)">
    <path
       inkscape:connector-curvature="0"
       style="fill:#aaaaaa;fill-opacity:1;stroke:none"
       d="m 100.00001,702.3622 c -24.309466,0 -48.63128,9.262 -67.178771,27.81069 -37.0949859,37.09739 -37.0949845,97.26888 0,134.36627 37.094962,37.09738 97.262551,37.0974 134.357531,0 37.09498,-37.09739 37.09496,-97.2689 0,-134.36627 -18.54748,-18.54869 -42.8693,-27.81069 -67.17876,-27.81069 z m 0,9.99935 c 21.75057,0 43.49081,8.30844 60.08594,24.90463 0.0314,0.0314 0.0624,0.0623 0.0937,0.0937 L 89.407602,786.76291 39.789053,857.32083 C 6.7244445,824.11844 6.7657197,770.41669 39.914067,737.26618 56.509194,720.66997 78.249436,712.36155 100.00001,712.36155 z m 60.21092,25.02962 c 33.06463,33.20244 33.02337,86.90419 -0.12498,120.0547 -33.19026,33.1924 -86.981643,33.19239 -120.171883,0 -0.03143,-0.0314 -0.06237,-0.0623 -0.09374,-0.0937 l 70.772053,-49.40304 49.61855,-70.55792 z m -60.21092,49.96551 c 2.55889,0 5.10921,0.98481 7.06158,2.9373 3.90473,3.90499 3.90473,10.2191 0,14.12409 -3.90473,3.90498 -10.218437,3.90498 -14.123167,0 -3.904729,-3.90499 -3.904735,-10.21909 0,-14.12409 1.952365,-1.95249 4.502689,-2.9373 7.061587,-2.9373 z"
       id="path4664" />
  </g>
</svg>
