<?xml version="1.0" encoding="UTF-8" standalone="no"?>
<!-- Created with Inkscape (http://www.inkscape.org/) -->

<svg
   xmlns:dc="http://purl.org/dc/elements/1.1/"
   xmlns:cc="http://creativecommons.org/ns#"
   xmlns:rdf="http://www.w3.org/1999/02/22-rdf-syntax-ns#"
   xmlns:svg="http://www.w3.org/2000/svg"
   xmlns="http://www.w3.org/2000/svg"
   xmlns:sodipodi="http://sodipodi.sourceforge.net/DTD/sodipodi-0.dtd"
   xmlns:inkscape="http://www.inkscape.org/namespaces/inkscape"
   width="400"
   height="600"
   id="svg2"
   version="1.1"
   inkscape:version="0.48.2 r9819"
   sodipodi:docname="doctor.svg">
  <defs
     id="defs4" />
  <sodipodi:namedview
     id="base"
     pagecolor="#ffffff"
     bordercolor="#666666"
     borderopacity="1.0"
     inkscape:pageopacity="0.0"
     inkscape:pageshadow="2"
     inkscape:zoom="2"
     inkscape:cx="95.7693"
     inkscape:cy="161.75797"
     inkscape:document-units="px"
     inkscape:current-layer="layer1"
     showgrid="true"
     inkscape:window-width="1440"
     inkscape:window-height="809"
     inkscape:window-x="0"
     inkscape:window-y="0"
     inkscape:window-maximized="1"
     inkscape:snap-grids="true"
     inkscape:object-nodes="false"
     inkscape:object-paths="false">
    <inkscape:grid
       type="xygrid"
       id="grid2985"
       empspacing="5"
       visible="true"
       enabled="true"
       snapvisiblegridlinesonly="true" />
  </sodipodi:namedview>
  <metadata
     id="metadata7">
    <rdf:RDF>
      <cc:Work
         rdf:about="">
        <dc:format>image/svg+xml</dc:format>
        <dc:type
           rdf:resource="http://purl.org/dc/dcmitype/StillImage" />
        <dc:title />
      </cc:Work>
    </rdf:RDF>
  </metadata>
  <g
     inkscape:label="Layer 1"
     inkscape:groupmode="layer"
     id="layer1"
     transform="translate(0,-452.36218)">
    <g
       id="g3350">
      <path
         id="path3053"
         d="m 60,542.36218 c -5.54,0 -10,4.46 -10,10 l 0,280 c 0,5.54 4.46,10 10,10 l 280,0 c 5.54,0 10,-4.46 10,-10 l 0,-280 c 0,-5.54 -4.46,-10 -10,-10 l -280,0 z m 92.125,45 6.59375,7.5 C 144.18469,607.68983 135,626.45167 135,647.36218 c 0,20.5222 8.83667,38.97745 22.90625,51.78125 C 126.42918,715.98518 105,749.16696 105,787.36218 l -10,0 c 0,-37.43909 18.70778,-70.50746 47.28125,-90.375 C 131.47601,683.34757 125,666.11452 125,647.36218 c 0,-23.90304 10.50548,-45.3407 27.125,-60 z m 62.875,0 c 33.13709,0 60,26.86292 60,60 0,23.6785 -13.73579,44.14681 -33.65625,53.90625 0.0534,0.0163 0.1029,0.0461 0.15625,0.0625 0.9393,0.28919 1.8867,0.58738 2.8125,0.90625 0.48558,0.16716 0.95572,0.35606 1.4375,0.53125 0.48997,0.17826 0.98282,0.34475 1.46875,0.53125 0.19975,0.0766 0.39469,0.17201 0.59375,0.25 1.71739,0.67352 3.42994,1.38196 5.09375,2.15625 0.0627,0.0291 0.12489,0.0645 0.1875,0.0937 0.97009,0.45424 1.92421,0.91874 2.875,1.40625 0.64681,0.3313 1.29988,0.68487 1.9375,1.03125 0.15491,0.0843 0.3144,0.16485 0.46875,0.25 0.48071,0.26482 0.9622,0.5392 1.4375,0.8125 0.40089,0.23099 0.79054,0.45054 1.1875,0.6875 0.84595,0.504 1.67228,1.03184 2.5,1.5625 0.0315,0.0202 0.0623,0.0422 0.0937,0.0625 0.5765,0.37062 1.15137,0.74168 1.71875,1.125 0.27818,0.18819 0.5678,0.37129 0.84375,0.5625 0.31475,0.21786 0.62568,0.4345 0.9375,0.65625 0.58961,0.41971 1.17104,0.84778 1.75,1.28125 0.57753,0.43191 1.15206,0.86716 1.71875,1.3125 0.15779,0.12416 0.31181,0.24981 0.46875,0.375 0.40823,0.32519 0.81635,0.66791 1.21875,1 0.37626,0.31102 0.7539,0.62051 1.125,0.9375 0.72313,0.6168 1.42191,1.23597 2.125,1.875 0.53276,0.48422 1.07277,0.97204 1.59375,1.46875 0.26199,0.24998 0.52227,0.4969 0.78125,0.75 0.3626,0.35406 0.7059,0.73366 1.0625,1.09375 0.35629,0.36005 0.71226,0.72776 1.0625,1.09375 0.54356,0.56763 1.09631,1.13706 1.625,1.71875 0.14935,0.16446 0.28934,0.33444 0.4375,0.5 C 296.32331,743.28723 305,764.30305 305,787.36218 l -10,0 c 0,-23.90304 -10.50548,-45.3407 -27.125,-60 -0.77621,-0.68466 -1.57259,-1.34533 -2.375,-2 -0.10885,-0.0888 -0.20318,-0.19305 -0.3125,-0.28125 -0.23562,-0.1902 -0.48094,-0.37492 -0.71875,-0.5625 -0.68563,-0.54082 -1.39034,-1.0751 -2.09375,-1.59375 -0.94739,-0.69854 -1.89647,-1.37408 -2.875,-2.03125 -0.60826,-0.4085 -1.22385,-0.79539 -1.84375,-1.1875 -0.37693,-0.23821 -0.74385,-0.4867 -1.125,-0.71875 -0.0197,-0.012 -0.0428,-0.0193 -0.0625,-0.0312 -0.42243,-0.25668 -0.85374,-0.50098 -1.28125,-0.75 -0.57646,-0.33622 -1.16451,-0.67789 -1.75,-1 -1.92352,-1.05823 -3.89059,-2.03706 -5.90625,-2.9375 -0.15698,-0.07 -0.31124,-0.14973 -0.46875,-0.21875 -0.10266,-0.0451 -0.20961,-0.0804 -0.3125,-0.125 -0.98988,-0.4295 -1.98984,-0.82863 -3,-1.21875 -1.05375,-0.40696 -2.11273,-0.79323 -3.1875,-1.15625 -0.0625,-0.0211 -0.12498,-0.0416 -0.1875,-0.0625 -0.0531,-0.0178 -0.10312,-0.0448 -0.15625,-0.0625 -0.93011,-0.30938 -1.86755,-0.568 -2.8125,-0.84375 -0.15858,-0.0462 -0.30977,-0.111 -0.46875,-0.15625 -0.81166,-0.23134 -1.64675,-0.45017 -2.46875,-0.65625 -0.82741,-0.20686 -1.66261,-0.41288 -2.5,-0.59375 -0.61496,-0.13317 -1.22359,-0.25609 -1.84375,-0.375 -0.094,-0.018 -0.18718,-0.0448 -0.28125,-0.0625 -0.22662,-0.0426 -0.46021,-0.0843 -0.6875,-0.125 -0.97779,-0.17498 -1.97892,-0.32972 -2.96875,-0.46875 -1.19936,-0.16846 -2.37782,-0.32297 -3.59375,-0.4375 -0.0206,-0.002 -0.0419,0.002 -0.0625,0 -0.0205,-0.002 -0.042,0.002 -0.0625,0 -1.21679,-0.1127 -2.45539,-0.19254 -3.6875,-0.25 -1.2529,-0.0585 -2.51377,-0.0938 -3.78125,-0.0938 -43.49242,0 -78.87355,34.70901 -79.96875,77.9375 -0.0174,0.68617 -0.0312,1.37214 -0.0312,2.0625 l -10,0 c 0,-0.77465 0.0118,-1.54253 0.0312,-2.3125 0.002,-0.0937 -0.003,-0.18759 0,-0.28125 0.0192,-0.67839 0.0597,-1.35669 0.0937,-2.03125 0.008,-0.16591 0.022,-0.33433 0.0312,-0.5 0.0451,-0.80248 0.0903,-1.60952 0.15625,-2.40625 0.0461,-0.55666 0.10007,-1.10251 0.15625,-1.65625 0.0515,-0.50729 0.0963,-1.02648 0.15625,-1.53125 0.0237,-0.19916 0.0688,-0.39499 0.0937,-0.59375 0.006,-0.0508 -0.006,-0.10544 0,-0.15625 0.13029,-1.02496 0.27303,-2.0486 0.4375,-3.0625 0.0374,-0.23013 0.0859,-0.45796 0.125,-0.6875 0.1455,-0.8547 0.33058,-1.68494 0.5,-2.53125 0.0249,-0.12427 0.0371,-0.25091 0.0625,-0.375 0.0234,-0.11432 0.0387,-0.22959 0.0625,-0.34375 0.0568,-0.27223 0.12822,-0.54118 0.1875,-0.8125 0.14528,-0.665 0.27761,-1.34059 0.4375,-2 0.0885,-0.36505 0.18827,-0.73045 0.28125,-1.09375 0.0105,-0.0412 0.0208,-0.0838 0.0312,-0.125 0.2642,-1.02686 0.54456,-2.01892 0.84375,-3.03125 0.32921,-1.11391 0.66055,-2.2483 1.03125,-3.34375 0.003,-0.009 -0.003,-0.022 0,-0.0312 0.054,-0.15925 0.13266,-0.3099 0.1875,-0.46875 0.32674,-0.94676 0.6741,-1.88035 1.03125,-2.8125 0.0283,-0.074 0.0652,-0.1449 0.0937,-0.21875 0.0757,-0.1961 0.14169,-0.39832 0.21875,-0.59375 0.35295,-0.89507 0.71321,-1.77548 1.09375,-2.65625 0.43881,-1.01563 0.90025,-2.0354 1.375,-3.03125 0.0501,-0.10507 0.10575,-0.20766 0.15625,-0.3125 0.46661,-0.96915 0.93756,-1.92552 1.4375,-2.875 0.0781,-0.14837 0.1711,-0.28962 0.25,-0.4375 0.49755,-0.93232 1.0022,-1.86886 1.53125,-2.78125 0.0681,-0.1174 0.15015,-0.22669 0.21875,-0.34375 0.43568,-0.74349 0.88753,-1.45783 1.34375,-2.1875 0.18098,-0.2896 0.34708,-0.58762 0.53125,-0.875 0.44346,-0.6917 0.88205,-1.38391 1.34375,-2.0625 0.23616,-0.34717 0.47789,-0.68758 0.71875,-1.03125 0.37679,-0.53748 0.7681,-1.06498 1.15625,-1.59375 0.15869,-0.21625 0.30818,-0.44147 0.46875,-0.65625 0.0449,-0.0601 0.0799,-0.12756 0.125,-0.1875 0.19983,-0.26592 0.4223,-0.51763 0.625,-0.78125 0.34726,-0.45145 0.70692,-0.89913 1.0625,-1.34375 0.29112,-0.36418 0.57837,-0.73422 0.875,-1.09375 0.60493,-0.73301 1.21633,-1.44299 1.84375,-2.15625 0.11734,-0.13348 0.22563,-0.27347 0.34375,-0.40625 0.68599,-0.7706 1.38201,-1.53474 2.09375,-2.28125 0.49929,-0.52397 1.01957,-1.01942 1.53125,-1.53125 0.3168,-0.3168 0.61602,-0.65668 0.9375,-0.96875 0.14217,-0.13803 0.29442,-0.26915 0.4375,-0.40625 0.59418,-0.56926 1.20292,-1.13455 1.8125,-1.6875 0.20714,-0.18795 0.41611,-0.37647 0.625,-0.5625 0.53789,-0.47883 1.07566,-0.94025 1.625,-1.40625 0.31071,-0.26375 0.62318,-0.52166 0.9375,-0.78125 0.64716,-0.53408 1.30659,-1.0776 1.96875,-1.59375 0.43434,-0.33864 0.87184,-0.6692 1.3125,-1 0.33921,-0.25459 0.68835,-0.50011 1.03125,-0.75 0.28279,-0.20611 0.55848,-0.42212 0.84375,-0.625 0.0851,-0.0605 0.1647,-0.12729 0.25,-0.1875 0.38662,-0.27296 0.79642,-0.51426 1.1875,-0.78125 0.22957,-0.15668 0.45641,-0.31415 0.6875,-0.46875 0.48731,-0.32614 0.97478,-0.65194 1.46875,-0.96875 0.85967,-0.55114 1.71443,-1.10263 2.59375,-1.625 0.28789,-0.17111 0.58505,-0.33203 0.875,-0.5 0.32313,-0.18703 0.6431,-0.37939 0.96875,-0.5625 0.38104,-0.21446 0.7718,-0.41596 1.15625,-0.625 0.0326,-0.0177 0.0611,-0.0448 0.0937,-0.0625 0.23764,-0.12883 0.47983,-0.24825 0.71875,-0.375 0.80637,-0.42746 1.61681,-0.84658 2.4375,-1.25 0.20871,-0.10267 0.41538,-0.21141 0.625,-0.3125 0.65576,-0.31598 1.33552,-0.63707 2,-0.9375 0.51721,-0.23389 1.04014,-0.46316 1.5625,-0.6875 0.36173,-0.15528 0.72959,-0.28684 1.09375,-0.4375 0.45679,-0.18911 0.91446,-0.38073 1.375,-0.5625 1.06491,-0.41992 2.13442,-0.83873 3.21875,-1.21875 0.15455,-0.0542 0.31382,-0.10289 0.46875,-0.15625 0.9234,-0.31787 1.87578,-0.61786 2.8125,-0.90625 0.0534,-0.0164 0.10279,-0.0462 0.15625,-0.0625 C 168.73729,691.50874 155,671.04068 155,647.36218 c 0,-33.13708 26.86291,-60 60,-60 z m 0,10 c -27.61424,0 -50,22.38576 -50,50 0,27.61424 22.38576,50 50,50 27.61424,0 50,-22.38576 50,-50 0,-27.61424 -22.38576,-50 -50,-50 z m -20,120 40,0 0,20 20,0 0,40 -20,0 0,20 -40,0 0,-20 -20,0 0,-40 20,0 0,-20 z m 10,10 0,20 -20,0 0,20 20,0 0,20 20,0 0,-20 20,0 0,-20 -20,0 0,-20 -20,0 z"
         style="fill:#ff723b;fill-opacity:1;fill-rule:evenodd;stroke:none"
         inkscape:connector-curvature="0" />
      <text
         sodipodi:linespacing="125%"
         id="text4092"
         y="964.6272"
         x="61.459999"
         style="font-size:65px;font-style:normal;font-weight:normal;line-height:125%;letter-spacing:0px;word-spacing:0px;fill:#000000;fill-opacity:1;stroke:none;font-family:Sans"
         xml:space="preserve"><tspan
           dx="0 0 0 0"
           style="font-size:65px;font-style:normal;font-variant:normal;font-weight:normal;font-stretch:normal;font-family:STHeiti;-inkscape-font-specification:STHeiti"
           y="964.6272"
           x="61.459999"
           id="tspan4094"
           sodipodi:role="line"><tspan
   id="tspan3174"
   style="letter-spacing:5px">专家背</tspan>景</tspan></text>
    </g>
  </g>
</svg>
