<?xml version="1.0" encoding="UTF-8" standalone="no"?>
<!-- Created with Inkscape (http://www.inkscape.org/) -->

<svg
   xmlns:dc="http://purl.org/dc/elements/1.1/"
   xmlns:cc="http://creativecommons.org/ns#"
   xmlns:rdf="http://www.w3.org/1999/02/22-rdf-syntax-ns#"
   xmlns:svg="http://www.w3.org/2000/svg"
   xmlns="http://www.w3.org/2000/svg"
   xmlns:sodipodi="http://sodipodi.sourceforge.net/DTD/sodipodi-0.dtd"
   xmlns:inkscape="http://www.inkscape.org/namespaces/inkscape"
   width="400"
   height="600"
   id="svg2"
   version="1.1"
   inkscape:version="0.48.2 r9819"
   sodipodi:docname="doctor-active.svg">
  <defs
     id="defs4" />
  <sodipodi:namedview
     id="base"
     pagecolor="#ffffff"
     bordercolor="#666666"
     borderopacity="1.0"
     inkscape:pageopacity="0.0"
     inkscape:pageshadow="2"
     inkscape:zoom="1"
     inkscape:cx="33.0193"
     inkscape:cy="101.75797"
     inkscape:document-units="px"
     inkscape:current-layer="layer1"
     showgrid="true"
     inkscape:window-width="1440"
     inkscape:window-height="784"
     inkscape:window-x="0"
     inkscape:window-y="0"
     inkscape:window-maximized="1"
     inkscape:snap-grids="true"
     inkscape:object-nodes="false"
     inkscape:object-paths="false">
    <inkscape:grid
       type="xygrid"
       id="grid2985"
       empspacing="5"
       visible="true"
       enabled="true"
       snapvisiblegridlinesonly="true" />
  </sodipodi:namedview>
  <metadata
     id="metadata7">
    <rdf:RDF>
      <cc:Work
         rdf:about="">
        <dc:format>image/svg+xml</dc:format>
        <dc:type
           rdf:resource="http://purl.org/dc/dcmitype/StillImage" />
        <dc:title />
      </cc:Work>
    </rdf:RDF>
  </metadata>
  <g
     inkscape:label="Layer 1"
     inkscape:groupmode="layer"
     id="layer1"
     transform="translate(0,-452.36218)">
    <path
       style="fill:#ff723b;fill-opacity:1;fill-rule:evenodd;stroke:none"
       d="M 50.666667,532.36218 C 44.757333,532.36218 40,537.11951 40,543.02885 l 0,298.66666 c 0,5.90934 4.757333,10.66667 10.666667,10.66667 l 298.666663,0 c 5.90934,0 10.66667,-4.75733 10.66667,-10.66667 l 0,-298.66666 c 0,-5.90934 -4.75733,-10.66667 -10.66667,-10.66667 l -298.666663,0 z m 98.266663,48 7.03334,8 c -15.503,13.68283 -25.3,33.69546 -25.3,56 0,21.89035 9.42578,41.57595 24.43333,55.23333 -33.57554,17.96454 -56.433333,53.35844 -56.433333,94.1 l -10.666667,0 c 0,-39.93503 19.95497,-75.20795 50.43333,-96.4 C 126.90774,682.7466 120,664.36468 120,644.36218 c 0,-25.49658 11.20585,-48.36341 28.93333,-64 z m 67.06667,0 c 35.34623,0 64,28.65378 64,64 0,25.25707 -14.65151,47.08993 -35.9,57.5 0.057,0.0174 0.10976,0.0492 0.16667,0.0667 1.00192,0.30847 2.01248,0.62654 3,0.96666 0.51795,0.17831 1.01943,0.3798 1.53333,0.56667 0.52263,0.19014 1.04834,0.36773 1.56667,0.56667 0.21306,0.0817 0.421,0.18347 0.63333,0.26666 1.83188,0.71842 3.6586,1.47409 5.43333,2.3 0.0669,0.031 0.13322,0.0689 0.2,0.1 1.03477,0.48452 2.05249,0.97999 3.06667,1.5 0.68993,0.35339 1.38654,0.73053 2.06667,1.1 0.16523,0.0899 0.33536,0.17584 0.5,0.26667 0.51275,0.28247 1.02634,0.57514 1.53333,0.86666 0.42762,0.24639 0.84324,0.48058 1.26667,0.73334 0.90234,0.5376 1.78376,1.10063 2.66666,1.66666 0.0336,0.0215 0.0666,0.045 0.0999,0.0667 0.61493,0.39533 1.22813,0.79113 1.83333,1.2 0.29673,0.20074 0.60566,0.39604 0.9,0.6 0.33574,0.23238 0.6674,0.46347 1,0.7 0.62892,0.44769 1.24911,0.9043 1.86667,1.36667 0.61603,0.4607 1.22886,0.92497 1.83333,1.4 0.16831,0.13243 0.3326,0.26646 0.5,0.4 0.43545,0.34687 0.87078,0.71243 1.3,1.06666 0.40135,0.33176 0.80416,0.66188 1.2,1 0.77134,0.65792 1.51671,1.31837 2.26667,2 0.56828,0.5165 1.14429,1.03685 1.7,1.56667 0.27946,0.26665 0.55709,0.53003 0.83333,0.8 0.38678,0.37766 0.75296,0.78257 1.13334,1.16667 0.38004,0.38405 0.75974,0.77627 1.13333,1.16666 0.5798,0.60548 1.1694,1.21287 1.73333,1.83334 0.15931,0.17542 0.30863,0.35673 0.46667,0.53333 15.21153,16.98672 24.46667,39.40359 24.46667,64 l -10.66667,0 c 0,-25.49658 -11.20585,-48.36341 -28.93333,-64 -0.82796,-0.7303 -1.67743,-1.43502 -2.53334,-2.13333 -0.1161,-0.0947 -0.21672,-0.20592 -0.33333,-0.3 -0.25133,-0.20288 -0.513,-0.39992 -0.76667,-0.6 -0.73134,-0.57688 -1.48303,-1.14678 -2.23333,-1.7 -1.01055,-0.74511 -2.0229,-1.46569 -3.06667,-2.16667 -0.64881,-0.43573 -1.30544,-0.84842 -1.96666,-1.26667 -0.40206,-0.25409 -0.79344,-0.51914 -1.2,-0.76666 -0.021,-0.0128 -0.0457,-0.0206 -0.0667,-0.0333 -0.45059,-0.2738 -0.91066,-0.53438 -1.36667,-0.8 -0.61489,-0.35864 -1.24214,-0.72309 -1.86666,-1.06667 -2.05176,-1.12878 -4.14997,-2.17286 -6.3,-3.13333 -0.16745,-0.0747 -0.33199,-0.15972 -0.5,-0.23334 -0.10951,-0.0481 -0.22359,-0.0858 -0.33334,-0.13333 -1.05587,-0.45813 -2.12249,-0.88387 -3.2,-1.3 -1.124,-0.43409 -2.25358,-0.84611 -3.4,-1.23333 -0.0667,-0.0225 -0.13331,-0.0444 -0.2,-0.0667 -0.0566,-0.019 -0.10999,-0.0478 -0.16666,-0.0667 -0.99212,-0.33 -1.99206,-0.60586 -3,-0.9 -0.16916,-0.0493 -0.33042,-0.1184 -0.5,-0.16666 -0.86577,-0.24677 -1.75654,-0.48018 -2.63334,-0.7 -0.88257,-0.22065 -1.77345,-0.44041 -2.66666,-0.63334 -0.65596,-0.14204 -1.30517,-0.27316 -1.96667,-0.4 -0.10027,-0.0192 -0.19966,-0.0478 -0.3,-0.0667 -0.24173,-0.0454 -0.49089,-0.0899 -0.73333,-0.13334 -1.04298,-0.18664 -2.11085,-0.3517 -3.16667,-0.5 -1.27932,-0.17969 -2.53634,-0.3445 -3.83333,-0.46666 -0.022,-0.002 -0.0447,0.002 -0.0667,0 -0.0219,-0.002 -0.0448,0.002 -0.0667,0 -1.29791,-0.12022 -2.61908,-0.20538 -3.93333,-0.26667 -1.33643,-0.0624 -2.68135,-0.1 -4.03333,-0.1 -46.39192,0 -84.13179,37.02295 -85.3,83.13334 -0.0186,0.73191 -0.0333,1.46361 -0.0333,2.2 l -10.66667,0 c 0,-0.8263 0.0126,-1.64537 0.0333,-2.46667 0.002,-0.0999 -0.003,-0.2001 0,-0.3 0.0205,-0.72362 0.0637,-1.44714 0.0999,-2.16667 0.009,-0.17697 0.0235,-0.35662 0.0333,-0.53333 0.0481,-0.85598 0.0963,-1.71682 0.16666,-2.56667 0.0492,-0.59377 0.10674,-1.17601 0.16667,-1.76666 0.0549,-0.54111 0.10272,-1.09492 0.16667,-1.63334 0.0253,-0.21243 0.0734,-0.42132 0.0999,-0.63333 0.006,-0.0542 -0.006,-0.11247 0,-0.16667 0.13898,-1.09329 0.29124,-2.18517 0.46667,-3.26666 0.0399,-0.24548 0.0916,-0.48849 0.13333,-0.73334 0.1552,-0.91168 0.35262,-1.79727 0.53334,-2.7 0.0266,-0.13255 0.0396,-0.26763 0.0667,-0.4 0.025,-0.12194 0.0413,-0.24489 0.0667,-0.36666 0.0606,-0.29038 0.13677,-0.57726 0.2,-0.86667 0.15497,-0.70933 0.29612,-1.42996 0.46667,-2.13333 0.0944,-0.38939 0.20082,-0.77915 0.3,-1.16667 0.0112,-0.0439 0.0222,-0.0894 0.0333,-0.13333 0.28181,-1.09532 0.58086,-2.15352 0.9,-3.23334 0.35115,-1.18817 0.70458,-2.39818 1.1,-3.56666 0.003,-0.01 -0.003,-0.0235 0,-0.0333 0.0576,-0.16987 0.1415,-0.33056 0.2,-0.5 0.34852,-1.00988 0.71904,-2.00571 1.1,-3 0.0302,-0.0789 0.0696,-0.15456 0.0999,-0.23334 0.0808,-0.20917 0.15114,-0.42487 0.23334,-0.63333 0.37648,-0.95474 0.76075,-1.89385 1.16666,-2.83333 0.46807,-1.08334 0.96027,-2.1711 1.46667,-3.23334 0.0534,-0.11207 0.1128,-0.2215 0.16667,-0.33333 0.49771,-1.03376 1.00006,-2.05389 1.53333,-3.06667 0.0833,-0.15826 0.18251,-0.30892 0.26667,-0.46666 0.53072,-0.99448 1.06901,-1.99345 1.63333,-2.96667 0.0726,-0.12523 0.16016,-0.2418 0.23333,-0.36667 0.46473,-0.79305 0.9467,-1.55502 1.43334,-2.33333 0.19304,-0.30891 0.37022,-0.62679 0.56666,-0.93333 0.47303,-0.73782 0.94086,-1.47617 1.43334,-2.2 0.2519,-0.37032 0.50975,-0.73342 0.76666,-1.1 0.40191,-0.57332 0.81931,-1.13598 1.23334,-1.7 0.16927,-0.23067 0.32872,-0.4709 0.5,-0.7 0.0479,-0.0641 0.0852,-0.13607 0.13333,-0.2 0.21315,-0.28365 0.45045,-0.55214 0.66667,-0.83334 0.37041,-0.48154 0.75404,-0.95907 1.13333,-1.43333 0.31053,-0.38846 0.61693,-0.78317 0.93333,-1.16667 0.64526,-0.78187 1.29742,-1.53919 1.96667,-2.3 0.12516,-0.14238 0.24067,-0.2917 0.36667,-0.43333 0.73172,-0.82197 1.47414,-1.63706 2.23333,-2.43333 0.53258,-0.5589 1.08754,-1.08738 1.63333,-1.63334 0.33792,-0.33792 0.65709,-0.70046 1,-1.03333 0.15165,-0.14723 0.31405,-0.28709 0.46667,-0.43333 0.63379,-0.60721 1.28311,-1.21019 1.93333,-1.8 0.22095,-0.20048 0.44385,-0.40157 0.66667,-0.6 0.57375,-0.51076 1.14737,-1.00294 1.73333,-1.5 0.33143,-0.28134 0.66473,-0.55644 1,-0.83334 0.69031,-0.56968 1.3937,-1.14944 2.1,-1.7 0.4633,-0.36121 0.92997,-0.71381 1.4,-1.06666 0.36183,-0.27157 0.73424,-0.53345 1.1,-0.8 0.30165,-0.21985 0.59572,-0.45026 0.9,-0.66667 0.0908,-0.0645 0.17568,-0.13578 0.26667,-0.2 0.41239,-0.29116 0.84951,-0.54854 1.26667,-0.83333 0.24487,-0.16713 0.48683,-0.3351 0.73333,-0.5 0.5198,-0.34789 1.03977,-0.69541 1.56667,-1.03334 0.91698,-0.58788 1.82872,-1.17614 2.76666,-1.73333 0.30709,-0.18252 0.62406,-0.35417 0.93334,-0.53333 0.34467,-0.1995 0.68597,-0.40469 1.03333,-0.6 0.40644,-0.22876 0.82325,-0.44369 1.23333,-0.66667 0.0348,-0.0189 0.0652,-0.0478 0.1,-0.0667 0.25348,-0.13742 0.51182,-0.2648 0.76667,-0.4 0.86012,-0.45595 1.72459,-0.90302 2.6,-1.33333 0.22262,-0.10951 0.44307,-0.2255 0.66666,-0.33333 0.69948,-0.33705 1.42456,-0.67954 2.13334,-1 0.55169,-0.24949 1.10948,-0.49404 1.66666,-0.73334 0.38585,-0.16563 0.77823,-0.30596 1.16667,-0.46666 0.48724,-0.20172 0.97542,-0.40612 1.46667,-0.6 1.1359,-0.44792 2.27671,-0.89465 3.43333,-1.3 0.16485,-0.0578 0.33474,-0.10975 0.5,-0.16667 0.98496,-0.33906 2.00083,-0.65905 3,-0.96667 0.057,-0.0175 0.10964,-0.0493 0.16667,-0.0667 C 166.65311,691.45184 152,669.61925 152,644.36218 c 0,-35.34622 28.65377,-64 64,-64 z m 0,10.66667 c -29.45519,0 -53.33333,23.87814 -53.33333,53.33333 0,29.45519 23.87814,53.33333 53.33333,53.33333 29.45519,0 53.33333,-23.87814 53.33333,-53.33333 0,-29.45519 -23.87814,-53.33333 -53.33333,-53.33333 z m -21.33333,128 42.66666,0 0,21.33333 21.33334,0 0,42.66667 -21.33334,0 0,21.33333 -42.66666,0 0,-21.33333 -21.33334,0 0,-42.66667 21.33334,0 0,-21.33333 z m 10.66666,10.66666 0,21.33334 -21.33333,0 0,21.33333 21.33333,0 0,21.33333 21.33334,0 0,-21.33333 21.33333,0 0,-21.33333 -21.33333,0 0,-21.33334 -21.33334,0 z"
       id="path3053"
       inkscape:connector-curvature="0" />
  </g>
</svg>
