<?xml version="1.0" encoding="UTF-8" standalone="no"?>
<!-- Created with Inkscape (http://www.inkscape.org/) -->

<svg
   xmlns:dc="http://purl.org/dc/elements/1.1/"
   xmlns:cc="http://creativecommons.org/ns#"
   xmlns:rdf="http://www.w3.org/1999/02/22-rdf-syntax-ns#"
   xmlns:svg="http://www.w3.org/2000/svg"
   xmlns="http://www.w3.org/2000/svg"
   xmlns:sodipodi="http://sodipodi.sourceforge.net/DTD/sodipodi-0.dtd"
   xmlns:inkscape="http://www.inkscape.org/namespaces/inkscape"
   width="400"
   height="600"
   id="svg2"
   version="1.1"
   inkscape:version="0.48.2 r9819"
   sodipodi:docname="medicine-1.svg">
  <defs
     id="defs4" />
  <sodipodi:namedview
     id="base"
     pagecolor="#ffffff"
     bordercolor="#666666"
     borderopacity="1.0"
     inkscape:pageopacity="0.0"
     inkscape:pageshadow="2"
     inkscape:zoom="1"
     inkscape:cx="98.99817"
     inkscape:cy="322.28239"
     inkscape:document-units="px"
     inkscape:current-layer="layer1"
     showgrid="true"
     inkscape:window-width="1440"
     inkscape:window-height="809"
     inkscape:window-x="0"
     inkscape:window-y="0"
     inkscape:window-maximized="1">
    <inkscape:grid
       type="xygrid"
       id="grid2985"
       empspacing="5"
       visible="true"
       enabled="true"
       snapvisiblegridlinesonly="true" />
  </sodipodi:namedview>
  <metadata
     id="metadata7">
    <rdf:RDF>
      <cc:Work
         rdf:about="">
        <dc:format>image/svg+xml</dc:format>
        <dc:type
           rdf:resource="http://purl.org/dc/dcmitype/StillImage" />
      </cc:Work>
    </rdf:RDF>
  </metadata>
  <g
     inkscape:label="Layer 1"
     inkscape:groupmode="layer"
     id="layer1"
     transform="translate(0,-452.36218)">
    <g
       id="g3824">
      <path
         inkscape:connector-curvature="0"
         id="rect3299"
         d="m 60,542.36216 c -5.54,0 -10,4.46 -10,10 l 0,280.00002 c 0,5.54 4.46,10 10,10 l 280,0 c 5.54,0 10,-4.46 10,-10 l 0,-280.00002 c 0,-5.54 -4.46,-10 -10,-10 l -280,0 z m 190.25,42.40625 c 10.47141,-0.19358 25.05648,7.02523 37.6875,19.65625 17.57359,17.57359 24.69304,38.93195 15.90625,47.71875 -4.71114,4.71113 -13.04784,4.87585 -22.46875,1.28125 l 7.3125,-7.3125 c 3.56266,0.90627 6.43142,0.63107 8.09375,-1.03125 4.88155,-4.88157 -2.2379,-19.92539 -15.90625,-33.59375 -13.66836,-13.66835 -28.71219,-20.78779 -33.59375,-15.90625 -1.66232,1.66233 -1.93751,4.5311 -1.03125,8.09375 l -7.3125,7.3125 c -3.59459,-9.42091 -3.42989,-17.75762 1.28125,-22.46875 2.47128,-2.47129 5.93374,-3.67425 10.03125,-3.75 z m 7.625,21.4375 7.09375,7.0625 -16.25,16.25 c 2.50383,2.08256 4.99127,4.30377 7.40625,6.71875 2.41499,2.41498 4.63619,4.90241 6.71875,7.40625 l 16.25,-16.25 7.0625,7.09375 -17.21875,17.21875 c 11.65262,17.31195 14.86835,34.63166 6.625,42.875 -5.16743,5.16744 -13.87912,5.84325 -23.9375,2.75 l 7.6875,-7.6875 c 3.94651,0.5528 7.14686,-0.0843 9.1875,-2.125 6.83417,-6.83417 -1.86391,-26.64517 -19.4375,-44.21875 -17.57359,-17.5736 -37.38458,-26.27168 -44.21875,-19.4375 -2.04062,2.04064 -2.6778,5.24099 -2.125,9.1875 l -7.6875,7.6875 c -3.09325,-10.05837 -2.41743,-18.77008 2.75,-23.9375 8.24334,-8.24335 25.56305,-5.02761 42.875,6.625 L 257.875,606.20591 z M 120,612.36216 l 60,0 0,10 -60,0 c -5.54,0 -10,4.46 -10,10 l 0,140.00002 c 0,5.54 4.46,10 10,10 l 140,0 c 5.54,0 10,-4.46 10,-10 l 0,-60.00002 10,0 0,60.00002 c 0,11.08 -8.92,20 -20,20 l -140,0 c -11.08,0 -20,-8.92 -20,-20 l 0,-140.00002 c 0,-11.08 8.92,-20 20,-20 z m 95.46875,22.125 7.0625,7.0625 -62.8125,62.8125 c 5.43567,2.07229 11.40674,6.00049 16.84375,11.4375 5.437,5.43701 9.3652,11.40808 11.4375,16.84375 l 62.8125,-62.8125 7.0625,7.0625 -70.6875,70.71877 c -3.92491,3.925 -11.60905,3.0662 -19.78125,-1.4375 l 6.8125,-6.81252 c 2.82121,1.57492 4.97888,2.08362 5.875,1.18752 1.95262,-1.95269 -2.78327,-9.87703 -10.59375,-17.68752 -7.81048,-7.81048 -15.73488,-12.54637 -17.6875,-10.59375 -0.89613,0.89612 -0.38746,3.0538 1.1875,5.875 l -6.8125,6.8125 c -4.50365,-8.17216 -5.36242,-15.85632 -1.4375,-19.78125 l 70.71875,-70.6875 z m -53.03125,88.375 7.0625,7.0625 -42.4375,42.43752 -7.0625,-7.0625 42.4375,-42.43752 z"
         style="fill:#20a2a6;fill-opacity:1;fill-rule:evenodd;stroke:none;stroke-opacity:1;stroke-width:2;stroke-miterlimit:4;stroke-dasharray:none" />
      <text
         sodipodi:linespacing="125%"
         id="text3109"
         y="965.14716"
         x="60"
         style="font-size:65px;font-style:normal;font-weight:normal;line-height:125%;letter-spacing:0px;word-spacing:0px;fill:#000000;fill-opacity:1;stroke:none;font-family:Sans"
         xml:space="preserve"><tspan
           style="font-size:65px;font-family:STHeiti;-inkscape-font-specification:STHeiti"
           y="965.14716"
           x="60"
           id="tspan3111"
           sodipodi:role="line"><tspan
   id="tspan3113"
   style="font-size:65px;letter-spacing:5px;font-family:STHeiti;-inkscape-font-specification:STHeiti">用药指</tspan>南</tspan></text>
    </g>
  </g>
</svg>
