<?xml version="1.0" encoding="UTF-8" standalone="no"?>
<!-- Created with Inkscape (http://www.inkscape.org/) -->

<svg
   xmlns:dc="http://purl.org/dc/elements/1.1/"
   xmlns:cc="http://creativecommons.org/ns#"
   xmlns:rdf="http://www.w3.org/1999/02/22-rdf-syntax-ns#"
   xmlns:svg="http://www.w3.org/2000/svg"
   xmlns="http://www.w3.org/2000/svg"
   xmlns:sodipodi="http://sodipodi.sourceforge.net/DTD/sodipodi-0.dtd"
   xmlns:inkscape="http://www.inkscape.org/namespaces/inkscape"
   width="400"
   height="600"
   id="svg2"
   version="1.1"
   inkscape:version="0.48.2 r9819"
   sodipodi:docname="medicine-active.svg">
  <defs
     id="defs4" />
  <sodipodi:namedview
     id="base"
     pagecolor="#ffffff"
     bordercolor="#666666"
     borderopacity="1.0"
     inkscape:pageopacity="0.0"
     inkscape:pageshadow="2"
     inkscape:zoom="1"
     inkscape:cx="-181.00183"
     inkscape:cy="242.28239"
     inkscape:document-units="px"
     inkscape:current-layer="layer1"
     showgrid="true"
     inkscape:window-width="1053"
     inkscape:window-height="767"
     inkscape:window-x="0"
     inkscape:window-y="0"
     inkscape:window-maximized="0">
    <inkscape:grid
       type="xygrid"
       id="grid2985"
       empspacing="5"
       visible="true"
       enabled="true"
       snapvisiblegridlinesonly="true" />
  </sodipodi:namedview>
  <metadata
     id="metadata7">
    <rdf:RDF>
      <cc:Work
         rdf:about="">
        <dc:format>image/svg+xml</dc:format>
        <dc:type
           rdf:resource="http://purl.org/dc/dcmitype/StillImage" />
        <dc:title />
      </cc:Work>
    </rdf:RDF>
  </metadata>
  <g
     inkscape:label="Layer 1"
     inkscape:groupmode="layer"
     id="layer1"
     transform="translate(0,-452.36218)">
    <path
       inkscape:connector-curvature="0"
       style="fill:#20a2a6;fill-opacity:1;fill-rule:evenodd;stroke:none"
       d="M 50.65625,532.36218 C 44.746916,532.36218 40,537.10909 40,543.01843 l 0,298.6875 c 0,5.90934 4.746916,10.65625 10.65625,10.65625 l 298.6875,0 c 5.90934,0 10.65625,-4.74691 10.65625,-10.65625 l 0,-298.6875 c 0,-5.90934 -4.74691,-10.65625 -10.65625,-10.65625 l -298.6875,0 z m 202.9375,45.21875 c 11.1695,-0.20649 26.74566,7.49566 40.21875,20.96875 18.74516,18.74516 26.34132,41.53367 16.96875,50.90625 -5.02522,5.02521 -13.91978,5.20924 -23.96875,1.375 l 7.78125,-7.8125 c 3.80017,0.96669 6.85185,0.67939 8.625,-1.09375 5.20699,-5.20701 -2.35793,-21.26417 -16.9375,-35.84375 -14.57959,-14.57957 -30.63675,-22.14447 -35.84375,-16.9375 -1.77314,1.77315 -2.06042,4.82484 -1.09375,8.625 l -7.8125,7.78125 c -3.83423,-10.04897 -3.65022,-18.94354 1.375,-23.96875 2.63603,-2.63604 6.31682,-3.9192 10.6875,-4 z m 8.125,22.875 7.59375,7.53125 -17.34375,17.34375 c 2.67075,2.2214 5.33027,4.58027 7.90625,7.15625 2.57599,2.57598 4.93486,5.23548 7.15625,7.90625 l 17.34375,-17.34375 7.53125,7.59375 -18.375,18.34375 c 12.42946,18.46607 15.85541,36.9571 7.0625,45.75 -5.51193,5.51193 -14.80231,6.23697 -25.53125,2.9375 l 8.21875,-8.21875 c 4.20961,0.58965 7.60456,-0.0732 9.78125,-2.25 7.28978,-7.28978 -1.97358,-28.44235 -20.71875,-47.1875 -18.74516,-18.74517 -39.89772,-28.00854 -47.1875,-20.71875 -2.17666,2.17668 -2.83965,5.57164 -2.25,9.78125 l -8.21875,8.21875 c -3.29947,-10.72893 -2.57442,-20.01933 2.9375,-25.53125 8.7929,-8.7929 27.28392,-5.36695 45.75,7.0625 l 18.34375,-18.375 z m -147.0625,6.5625 64,0 0,10.6875 -64,0 c -5.90934,0 -10.65625,4.74692 -10.65625,10.65625 l 0,149.34375 c 0,5.90933 4.74691,10.65625 10.65625,10.65625 l 149.34375,0 c 5.90933,0 10.65625,-4.74692 10.65625,-10.65625 l 0,-64 10.6875,0 0,64 c 0,11.81866 -9.52508,21.3125 -21.34375,21.3125 l -149.34375,0 c -11.81867,0 -21.3125,-9.49384 -21.3125,-21.3125 l 0,-149.34375 c 0,-11.81866 9.49383,-21.34375 21.3125,-21.34375 z m 101.84375,23.625 7.53125,7.53125 -67,67 c 5.79805,2.21044 12.16927,6.38802 17.96875,12.1875 5.79947,5.79947 9.97705,12.17071 12.1875,17.96875 l 67,-67 7.53125,7.53125 -75.375,75.4375 c -4.18657,4.18667 -12.40798,3.27269 -21.125,-1.53125 L 172.5,742.48718 c 3.00929,1.67991 5.32539,2.23709 6.28125,1.28125 2.08279,-2.08287 -2.98132,-10.54381 -11.3125,-18.875 -8.33118,-8.33118 -16.79221,-13.39529 -18.875,-11.3125 -0.95587,0.95586 -0.39871,3.27197 1.28125,6.28125 l -7.28125,7.28125 c -4.80389,-8.71697 -5.71783,-16.93841 -1.53125,-21.125 l 75.4375,-75.375 z m -56.5625,94.25 7.53125,7.53125 -45.28125,45.28125 -7.53125,-7.53125 45.28125,-45.28125 z"
       id="path4716" />
  </g>
</svg>
