<?xml version="1.0" encoding="UTF-8" standalone="no"?>
<!-- Created with Inkscape (http://www.inkscape.org/) -->

<svg
   xmlns:dc="http://purl.org/dc/elements/1.1/"
   xmlns:cc="http://creativecommons.org/ns#"
   xmlns:rdf="http://www.w3.org/1999/02/22-rdf-syntax-ns#"
   xmlns:svg="http://www.w3.org/2000/svg"
   xmlns="http://www.w3.org/2000/svg"
   xmlns:sodipodi="http://sodipodi.sourceforge.net/DTD/sodipodi-0.dtd"
   xmlns:inkscape="http://www.inkscape.org/namespaces/inkscape"
   width="200"
   height="400"
   id="svg2"
   version="1.1"
   inkscape:version="0.48.2 r9819"
   sodipodi:docname="question.svg"
   inkscape:export-filename="/Users/YunhaoHu/Development/tudingalpha/public/images/question.png"
   inkscape:export-xdpi="90"
   inkscape:export-ydpi="90">
  <defs
     id="defs4" />
  <sodipodi:namedview
     id="base"
     pagecolor="#ffffff"
     bordercolor="#666666"
     borderopacity="1.0"
     inkscape:pageopacity="0.0"
     inkscape:pageshadow="2"
     inkscape:zoom="2"
     inkscape:cx="103.30367"
     inkscape:cy="207.9012"
     inkscape:document-units="px"
     inkscape:current-layer="layer1"
     showgrid="true"
     inkscape:snap-grids="true"
     inkscape:object-nodes="false"
     inkscape:window-width="1440"
     inkscape:window-height="809"
     inkscape:window-x="0"
     inkscape:window-y="0"
     inkscape:window-maximized="1"
     inkscape:snap-smooth-nodes="false"
     inkscape:object-paths="false">
    <inkscape:grid
       type="xygrid"
       id="grid2985"
       empspacing="5"
       visible="true"
       enabled="true"
       snapvisiblegridlinesonly="true" />
  </sodipodi:namedview>
  <metadata
     id="metadata7">
    <rdf:RDF>
      <cc:Work
         rdf:about="">
        <dc:format>image/svg+xml</dc:format>
        <dc:type
           rdf:resource="http://purl.org/dc/dcmitype/StillImage" />
        <dc:title />
      </cc:Work>
    </rdf:RDF>
  </metadata>
  <g
     inkscape:label="Layer 1"
     inkscape:groupmode="layer"
     id="layer1"
     transform="translate(0,-652.36218)">
    <g
       id="g3587">
      <path
         inkscape:connector-curvature="0"
         id="path3888"
         d="m 79.978754,803.22218 c -1.96e-4,-7.81048 -5.12e-4,-7.81048 -7.07e-4,0 -9.8e-5,3.90525 -1.47e-4,9.02369 -1.47e-4,14.14214 l 10e-7,19.99786 4.99e-4,0.0221 c 1.28e-4,0 2.56e-4,-1.97258 3.54e-4,-5.87782 1.95e-4,-7.81049 1.95e-4,-20.47379 0,-28.28428 z"
         style="opacity:1;fill:#aaaaaa;fill-opacity:1;stroke:none" />
      <path
         inkscape:connector-curvature="0"
         id="path3984"
         d="m 100,807.36218 c -16.56854,0 -29.999998,12.92749 -30,28.875 l 10,0 c 10e-7,-10.63167 8.95431,-19.25 20,-19.25 11.04569,0 20,8.61833 20,19.25 0,7.12153 -4.02729,13.32646 -10,16.65625 -0.0201,0.0112 -0.0425,0.0204 -0.0625,0.0312 l -0.53125,0.3125 -4.40625,2.4688 c -5.97272,3.32979 -10,9.53472 -10,16.65625 l 10,0 c 0,-3.56694 2.00506,-6.68099 5,-8.34375 l 4.1875,-2.34375 0.8125,-0.4375 c 8.96689,-4.99274 15,-14.31207 15,-25 -2e-5,-15.9475 -13.43146,-28.875 -30,-28.875 z m 0,75 c -4.142136,0 -7.5,3.35786 -7.5,7.5 0,4.14214 3.357864,7.5 7.5,7.5 4.14214,0 7.5,-3.35786 7.5,-7.5 0,-4.14214 -3.35786,-7.5 -7.5,-7.5 z"
         style="fill:#aaaaaa;fill-opacity:1;stroke:none" />
      <path
         id="path4071"
         transform="translate(0,652.36218)"
         d="M 100 105 C 47.53295 105 5 147.53295 5 200 C 5 252.46705 47.53295 295 100 295 C 152.46705 295 195 252.46705 195 200 C 195 147.53295 152.46705 105 100 105 z M 100 115 C 146.9442 115 185 153.05579 185 200 C 185 246.94421 146.9442 285 100 285 C 53.055796 285 15 246.94421 15 200 C 15 153.05579 53.055796 115 100 115 z "
         style="fill:#aaaaaa;fill-opacity:1;stroke:none" />
    </g>
  </g>
</svg>
