<?xml version="1.0" encoding="UTF-8" standalone="no"?>
<!-- Created with Inkscape (http://www.inkscape.org/) -->

<svg
   xmlns:dc="http://purl.org/dc/elements/1.1/"
   xmlns:cc="http://creativecommons.org/ns#"
   xmlns:rdf="http://www.w3.org/1999/02/22-rdf-syntax-ns#"
   xmlns:svg="http://www.w3.org/2000/svg"
   xmlns="http://www.w3.org/2000/svg"
   xmlns:sodipodi="http://sodipodi.sourceforge.net/DTD/sodipodi-0.dtd"
   xmlns:inkscape="http://www.inkscape.org/namespaces/inkscape"
   width="200"
   height="400"
   id="svg2"
   version="1.1"
   inkscape:version="0.48.2 r9819"
   sodipodi:docname="question-active.svg"
   inkscape:export-filename="/Users/YunhaoHu/Development/tudingalpha/public/images/question-active.png"
   inkscape:export-xdpi="90"
   inkscape:export-ydpi="90">
  <defs
     id="defs4" />
  <sodipodi:namedview
     id="base"
     pagecolor="#ffffff"
     bordercolor="#666666"
     borderopacity="1.0"
     inkscape:pageopacity="0.0"
     inkscape:pageshadow="2"
     inkscape:zoom="2"
     inkscape:cx="3.553667"
     inkscape:cy="147.9012"
     inkscape:document-units="px"
     inkscape:current-layer="layer1"
     showgrid="true"
     inkscape:snap-grids="true"
     inkscape:object-nodes="false"
     inkscape:window-width="1440"
     inkscape:window-height="809"
     inkscape:window-x="0"
     inkscape:window-y="0"
     inkscape:window-maximized="1"
     inkscape:snap-smooth-nodes="false"
     inkscape:object-paths="false">
    <inkscape:grid
       type="xygrid"
       id="grid2985"
       empspacing="5"
       visible="true"
       enabled="true"
       snapvisiblegridlinesonly="true" />
  </sodipodi:namedview>
  <metadata
     id="metadata7">
    <rdf:RDF>
      <cc:Work
         rdf:about="">
        <dc:format>image/svg+xml</dc:format>
        <dc:type
           rdf:resource="http://purl.org/dc/dcmitype/StillImage" />
        <dc:title></dc:title>
      </cc:Work>
    </rdf:RDF>
  </metadata>
  <g
     inkscape:label="Layer 1"
     inkscape:groupmode="layer"
     id="layer1"
     transform="translate(0,-652.36218)">
    <path
       style="fill:#ff8600;fill-opacity:1;stroke:none"
       d="M 100 105 C 47.53295 105 5 147.53295 5 200 C 5 252.46705 47.53295 295 100 295 C 152.46705 295 195 252.46705 195 200 C 195 147.53295 152.46705 105 100 105 z M 100 155 C 116.56854 155 129.99998 167.9275 130 183.875 C 130 194.56293 123.96689 203.88226 115 208.875 L 114.1875 209.3125 L 110 211.65625 C 107.00506 213.31901 105 216.43306 105 220 L 95 220 C 95 212.87847 99.027277 206.67354 105 203.34375 L 109.40625 200.875 L 109.9375 200.5625 C 109.9575 200.5517 109.9799 200.54245 110 200.53125 C 115.97271 197.20146 120 190.99653 120 183.875 C 120 173.24333 111.04569 164.625 100 164.625 C 88.95431 164.625 80.000001 173.24333 80 183.875 L 70 183.875 C 70.000002 167.92749 83.43146 155 100 155 z M 100 230 C 104.14214 230 107.5 233.35786 107.5 237.5 C 107.5 241.64214 104.14214 245 100 245 C 95.857864 245 92.5 241.64214 92.5 237.5 C 92.5 233.35786 95.857864 230 100 230 z "
       transform="translate(0,652.36218)"
       id="path4071" />
    <path
       style="opacity:1;fill:#ff8600;fill-opacity:1;stroke:none"
       d="m 79.978754,803.22218 c -1.96e-4,-7.81048 -5.12e-4,-7.81048 -7.07e-4,0 -9.8e-5,3.90525 -1.47e-4,9.02369 -1.47e-4,14.14214 l 10e-7,19.99786 4.99e-4,0.0221 c 1.28e-4,0 2.56e-4,-1.97258 3.54e-4,-5.87782 1.95e-4,-7.81049 1.95e-4,-20.47379 0,-28.28428 z"
       id="path3888"
       inkscape:connector-curvature="0" />
  </g>
</svg>
