<?xml version="1.0" encoding="UTF-8" standalone="no"?>
<!-- Created with Inkscape (http://www.inkscape.org/) -->

<svg
   xmlns:dc="http://purl.org/dc/elements/1.1/"
   xmlns:cc="http://creativecommons.org/ns#"
   xmlns:rdf="http://www.w3.org/1999/02/22-rdf-syntax-ns#"
   xmlns:svg="http://www.w3.org/2000/svg"
   xmlns="http://www.w3.org/2000/svg"
   xmlns:sodipodi="http://sodipodi.sourceforge.net/DTD/sodipodi-0.dtd"
   xmlns:inkscape="http://www.inkscape.org/namespaces/inkscape"
   width="200"
   height="400"
   id="svg3904"
   version="1.1"
   inkscape:version="0.48.2 r9819"
   sodipodi:docname="surround-active.svg"
   inkscape:export-filename="/Users/YunhaoHu/Development/tudingalpha/public/images/surround-active.png"
   inkscape:export-xdpi="90"
   inkscape:export-ydpi="90">
  <defs
     id="defs3906" />
  <sodipodi:namedview
     id="base"
     pagecolor="#ffffff"
     bordercolor="#666666"
     borderopacity="1.0"
     inkscape:pageopacity="0.0"
     inkscape:pageshadow="2"
     inkscape:zoom="2"
     inkscape:cx="104.32945"
     inkscape:cy="161.10239"
     inkscape:document-units="px"
     inkscape:current-layer="layer1"
     showgrid="true"
     inkscape:window-width="1440"
     inkscape:window-height="809"
     inkscape:window-x="0"
     inkscape:window-y="0"
     inkscape:window-maximized="1">
    <inkscape:grid
       type="xygrid"
       id="grid3912"
       empspacing="5"
       visible="true"
       enabled="true"
       snapvisiblegridlinesonly="true" />
  </sodipodi:namedview>
  <metadata
     id="metadata3909">
    <rdf:RDF>
      <cc:Work
         rdf:about="">
        <dc:format>image/svg+xml</dc:format>
        <dc:type
           rdf:resource="http://purl.org/dc/dcmitype/StillImage" />
        <dc:title></dc:title>
      </cc:Work>
    </rdf:RDF>
  </metadata>
  <g
     inkscape:label="Layer 1"
     inkscape:groupmode="layer"
     id="layer1"
     transform="translate(0,-652.36218)">
    <g
       id="g7974">
      <g
         style="fill:#ff8600;fill-opacity:1"
         id="g4452">
        <path
           style="fill:#ff8600;fill-opacity:1;stroke:none"
           d="m 100,702.51843 c -15.355339,0 -30.72177,5.84677 -42.4375,17.5625 -23.431457,23.43146 -23.431454,61.41229 0,84.84375 l 42.4375,42.4375 42.4375,-42.4375 c 23.43146,-23.43146 23.43145,-61.41229 0,-84.84375 C 130.72177,708.36521 115.35534,702.51843 100,702.51843 z m 0,40 c 5.11845,0 10.25101,1.93851 14.15625,5.84375 7.81048,7.81049 7.81048,20.47076 0,28.28125 -7.81049,7.81048 -20.502017,7.81048 -28.3125,0 -7.810482,-7.81049 -7.810485,-20.47076 0,-28.28125 3.905242,-3.90524 9.037803,-5.84375 14.15625,-5.84375 z M 71.375,833.73718 C 32.898905,837.57249 5,848.9442 5,862.36218 c 0,16.56854 42.532949,30 95,30 52.46705,0 95,-13.43146 95,-30 0,-13.41798 -27.8989,-24.78969 -66.375,-28.625 l -28.625,28.625 -28.625,-28.625 z"
           id="path4582"
           inkscape:connector-curvature="0" />
      </g>
      <g
         style="fill:#ffffff;fill-opacity:1"
         transform="translate(1.1917729,0)"
         id="g5619">
        <text
           xml:space="preserve"
           style="font-size:65px;font-style:normal;font-variant:normal;font-weight:normal;font-stretch:normal;text-align:start;line-height:125%;letter-spacing:30px;word-spacing:10px;writing-mode:lr-tb;text-anchor:start;fill:#ffffff;fill-opacity:1;stroke:none;font-family:Sans;-inkscape-font-specification:Sans"
           x="23.038227"
           y="1005.7122"
           id="text3041"
           sodipodi:linespacing="125%"><tspan
             sodipodi:role="line"
             id="tspan3045"
             style="font-size:70px;font-style:normal;font-variant:normal;font-weight:normal;font-stretch:normal;letter-spacing:10px;word-spacing:0px;fill:#ffffff;fill-opacity:1;font-family:STHeiti;-inkscape-font-specification:STHeiti"
             x="23.038227"
             y="1005.7122"
             dx="0 0">周<tspan
   style="letter-spacing:0px;fill:#ffffff;fill-opacity:1"
   id="tspan3545">边</tspan></tspan></text>
      </g>
    </g>
  </g>
</svg>
