<?xml version="1.0" encoding="UTF-8" standalone="no"?>
<!-- Created with Inkscape (http://www.inkscape.org/) -->

<svg
   xmlns:dc="http://purl.org/dc/elements/1.1/"
   xmlns:cc="http://creativecommons.org/ns#"
   xmlns:rdf="http://www.w3.org/1999/02/22-rdf-syntax-ns#"
   xmlns:svg="http://www.w3.org/2000/svg"
   xmlns="http://www.w3.org/2000/svg"
   xmlns:sodipodi="http://sodipodi.sourceforge.net/DTD/sodipodi-0.dtd"
   xmlns:inkscape="http://www.inkscape.org/namespaces/inkscape"
   width="200"
   height="400"
   id="svg3904"
   version="1.1"
   inkscape:version="0.48.2 r9819"
   sodipodi:docname="surround.svg">
  <defs
     id="defs3906" />
  <sodipodi:namedview
     id="base"
     pagecolor="#ffffff"
     bordercolor="#666666"
     borderopacity="1.0"
     inkscape:pageopacity="0.0"
     inkscape:pageshadow="2"
     inkscape:zoom="2.8284271"
     inkscape:cx="12.260578"
     inkscape:cy="148.57283"
     inkscape:document-units="px"
     inkscape:current-layer="g3304"
     showgrid="true"
     inkscape:window-width="1440"
     inkscape:window-height="810"
     inkscape:window-x="0"
     inkscape:window-y="0"
     inkscape:window-maximized="1">
    <inkscape:grid
       type="xygrid"
       id="grid3912"
       empspacing="5"
       visible="true"
       enabled="true"
       snapvisiblegridlinesonly="true" />
  </sodipodi:namedview>
  <metadata
     id="metadata3909">
    <rdf:RDF>
      <cc:Work
         rdf:about="">
        <dc:format>image/svg+xml</dc:format>
        <dc:type
           rdf:resource="http://purl.org/dc/dcmitype/StillImage" />
        <dc:title />
      </cc:Work>
    </rdf:RDF>
  </metadata>
  <g
     inkscape:label="Layer 1"
     inkscape:groupmode="layer"
     id="layer1"
     transform="translate(0,-652.36218)">
    <g
       id="g3310"
       style="fill:#aaaaaa;fill-opacity:1">
      <g
         id="g3304"
         style="fill:#aaaaaa;fill-opacity:1">
        <g
           id="g3290">
          <path
             inkscape:connector-curvature="0"
             id="path3966"
             d="m 100,702.51843 c -15.35534,0 -30.721771,5.84678 -42.4375,17.5625 -23.431457,23.43146 -23.431454,61.41225 0,84.84375 l 42.4375,42.4375 42.4375,-42.4375 c 23.43145,-23.4315 23.43145,-61.41229 0,-84.84375 C 130.72177,708.36521 115.35534,702.51843 100,702.51843 z m 0,10 c 12.79611,0 25.58065,4.86189 35.34375,14.625 19.52623,19.52622 19.52622,51.19255 0,70.71875 L 100,833.20593 64.65625,797.86218 c -19.526216,-19.5262 -19.526214,-51.19253 0,-70.71875 9.763107,-9.7631 22.547635,-14.625 35.34375,-14.625 z m 0,30 c -5.118446,0 -10.251007,1.93851 -14.15625,5.84375 -7.810485,7.81049 -7.810482,20.47078 0,28.28125 7.810483,7.8105 20.50202,7.8105 28.3125,0 7.81049,-7.81047 7.81048,-20.47076 0,-28.28125 -3.90524,-3.90524 -9.0378,-5.84375 -14.15625,-5.84375 z M 71.375,833.73718 C 32.898904,837.57249 5,848.9442 5,862.36218 c 0,16.56854 42.532947,30 95,30 52.46705,0 95,-13.43146 95,-30 0,-13.41798 -27.8989,-24.78969 -66.375,-28.625 l -9.15625,9.15625 c 37.55761,2.0717 65.53125,9.9999 65.53125,19.46875 0,11.04569 -38.0558,20 -85,20 -46.944204,0 -85,-8.95431 -85,-20 0,-9.46885 27.973634,-17.39705 65.53125,-19.46875 L 71.375,833.73718 z"
             style="fill:#aaaaaa;fill-opacity:1;stroke:none" />
          <text
             sodipodi:linespacing="125%"
             id="text3041"
             y="1005.7122"
             x="24.23"
             style="font-size:70px;font-style:normal;font-variant:normal;font-weight:normal;font-stretch:normal;text-align:start;line-height:125%;letter-spacing:10px;word-spacing:0px;writing-mode:lr-tb;text-anchor:start;fill:#aaaaaa;fill-opacity:1;stroke:none;font-family:Sans;-inkscape-font-specification:Sans"
             xml:space="preserve"><tspan
               dx="0 0"
               y="1005.7122"
               x="24.23"
               style="font-size:70px;font-style:normal;font-variant:normal;font-weight:normal;font-stretch:normal;letter-spacing:10px;word-spacing:0px;fill:#aaaaaa;fill-opacity:1;font-family:STHeiti;-inkscape-font-specification:STHeiti"
               id="tspan3045"
               sodipodi:role="line">周<tspan
   id="tspan3302"
   style="letter-spacing:0px;fill:#aaaaaa;fill-opacity:1">边</tspan></tspan></text>
        </g>
      </g>
    </g>
  </g>
</svg>
